HIERARCHY
ROOT hip
{
  OFFSET 0 0 0
  CHANNELS 6 Xposition Yposition Zposition Zrotation Yrotation Xrotation
  JOINT abdomen
  {
    OFFSET 0 20.6881 -0.73152
    CHANNELS 3 Zrotation Xrotation Yrotation
    JOINT chest
    {
      OFFSET 0 11.7043 -0.48768
      CHANNELS 3 Zrotation Xrotation Yrotation
      JOINT neck
      {
        OFFSET 0 22.1894 -2.19456
        CHANNELS 3 Zrotation Xrotation Yrotation
        JOINT head
        {
          OFFSET -0.24384 7.07133 1.2192
          CHANNELS 3 Zrotation Xrotation Yrotation
          JOINT leftEye
          {
            OFFSET 4.14528 8.04674 8.04672
            CHANNELS 3 Zrotation Xrotation Yrotation
            End Site
            {
              OFFSET 1 0 0
            }
          }
          JOINT rightEye
          {
            OFFSET -3.6576 8.04674 8.04672
            CHANNELS 3 Zrotation Xrotation Yrotation
            End Site
            {
              OFFSET 1 0 0
            }
          }
        }
      }
      JOINT rCollar
      {
        OFFSET -2.68224 19.2634 -4.8768
        CHANNELS 3 Zrotation Xrotation Yrotation
        JOINT rShldr
        {
          OFFSET -8.77824 -1.95073 1.46304
          CHANNELS 3 Zrotation Xrotation Yrotation
          JOINT rForeArm
          {
            OFFSET -28.1742 -1.7115 0.48768
            CHANNELS 3 Zrotation Xrotation Yrotation
            JOINT rHand
            {
              OFFSET -22.5879 0.773209 7.07136
              CHANNELS 3 Zrotation Xrotation Yrotation
              JOINT rThumb1
              {
                OFFSET -1.2192 -0.487915 3.41376
                CHANNELS 3 Zrotation Xrotation Yrotation
                JOINT rThumb2
                {
                  OFFSET -3.37035 -0.52449 3.41376
                  CHANNELS 3 Zrotation Xrotation Yrotation
                  End Site
                  {
                    OFFSET -1.78271 -1.18214 1.43049
                  }
                }
              }
              JOINT rIndex1
              {
                OFFSET -7.75947 0.938293 5.60832
                CHANNELS 3 Zrotation Xrotation Yrotation
                JOINT rIndex2
                {
                  OFFSET -2.54057 -0.884171 1.56538
                  CHANNELS 3 Zrotation Xrotation Yrotation
                  End Site
                  {
                    OFFSET -1.62519 -0.234802 1.16502
                  }
                }
              }
              JOINT rMid1
              {
                OFFSET -8.24714 1.18213 3.41376
                CHANNELS 3 Zrotation Xrotation Yrotation
                JOINT rMid2
                {
                  OFFSET -3.10165 -0.590103 1.0647
                  CHANNELS 3 Zrotation Xrotation Yrotation
                  End Site
                  {
                    OFFSET -2.48547 -0.328903 0.83742
                  }
                }
              }
              JOINT rRing1
              {
                OFFSET -8.82822 0.546677 1.51678
                CHANNELS 3 Zrotation Xrotation Yrotation
                JOINT rRing2
                {
                  OFFSET -2.60934 -0.819778 -0.0198488
                  CHANNELS 3 Zrotation Xrotation Yrotation
                  End Site
                  {
                    OFFSET -2.33842 -0.294052 0.168128
                  }
                }
              }
              JOINT rPinky1
              {
                OFFSET -8.27202 -0.0477905 -0.4584
                CHANNELS 3 Zrotation Xrotation Yrotation
                JOINT rPinky2
                {
                  OFFSET -1.82734 -0.647385 -0.700984
                  CHANNELS 3 Zrotation Xrotation Yrotation
                  End Site
                  {
                    OFFSET -1.69225 -0.51767 -0.607171
                  }
                }
              }
            }
          }
        }
      }
      JOINT lCollar
      {
        OFFSET 2.68224 19.2634 -4.8768
        CHANNELS 3 Zrotation Xrotation Yrotation
        JOINT lShldr
        {
          OFFSET 8.77824 -1.95073 1.46304
          CHANNELS 3 Zrotation Xrotation Yrotation
          JOINT lForeArm
          {
            OFFSET 28.1742 -1.7115 0.48768
            CHANNELS 3 Zrotation Xrotation Yrotation
            JOINT lHand
            {
              OFFSET 22.5879 0.773209 7.07136
              CHANNELS 3 Zrotation Xrotation Yrotation
              JOINT lThumb1
              {
                OFFSET 1.2192 -0.487915 3.41376
                CHANNELS 3 Zrotation Xrotation Yrotation
                JOINT lThumb2
                {
                  OFFSET 3.37035 -0.52449 3.41376
                  CHANNELS 3 Zrotation Xrotation Yrotation
                  End Site
                  {
                    OFFSET 1.78271 -1.18214 1.43049
                  }
                }
              }
              JOINT lIndex1
              {
                OFFSET 7.75947 0.938293 5.60832
                CHANNELS 3 Zrotation Xrotation Yrotation
                JOINT lIndex2
                {
                  OFFSET 2.54057 -0.884171 1.56538
                  CHANNELS 3 Zrotation Xrotation Yrotation
                  End Site
                  {
                    OFFSET 1.62519 -0.234802 1.16502
                  }
                }
              }
              JOINT lMid1
              {
                OFFSET 8.24714 1.18213 3.41376
                CHANNELS 3 Zrotation Xrotation Yrotation
                JOINT lMid2
                {
                  OFFSET 3.10165 -0.590103 1.0647
                  CHANNELS 3 Zrotation Xrotation Yrotation
                  End Site
                  {
                    OFFSET 2.48547 -0.328903 0.83742
                  }
                }
              }
              JOINT lRing1
              {
                OFFSET 8.82822 0.546677 1.51678
                CHANNELS 3 Zrotation Xrotation Yrotation
                JOINT lRing2
                {
                  OFFSET 2.60934 -0.819778 -0.0198488
                  CHANNELS 3 Zrotation Xrotation Yrotation
                  End Site
                  {
                    OFFSET 2.33842 -0.294052 0.168128
                  }
                }
              }
              JOINT lPinky1
              {
                OFFSET 8.27202 -0.0477905 -0.4584
                CHANNELS 3 Zrotation Xrotation Yrotation
                JOINT lPinky2
                {
                  OFFSET 1.82734 -0.647385 -0.700984
                  CHANNELS 3 Zrotation Xrotation Yrotation
                  End Site
                  {
                    OFFSET 1.69225 -0.51767 -0.607171
                  }
                }
              }
            }
          }
        }
      }
    }
  }
  JOINT rButtock
  {
    OFFSET -8.77824 4.35084 1.2192
    CHANNELS 3 Zrotation Xrotation Yrotation
    JOINT rThigh
    {
      OFFSET 0 -1.70687 -2.19456
      CHANNELS 3 Zrotation Xrotation Yrotation
      JOINT rShin
      {
        OFFSET 0 -36.8199 0.73152
        CHANNELS 3 Zrotation Xrotation Yrotation
        JOINT rFoot
        {
          OFFSET 0.73152 -45.1104 -5.12064
          CHANNELS 3 Zrotation Xrotation Yrotation
          End Site
          {
            OFFSET -1.1221 -3.69964 12.103
          }
        }
      }
    }
  }
  JOINT lButtock
  {
    OFFSET 8.77824 4.35084 1.2192
    CHANNELS 3 Zrotation Xrotation Yrotation
    JOINT lThigh
    {
      OFFSET 0 -1.70687 -2.19456
      CHANNELS 3 Zrotation Xrotation Yrotation
      JOINT lShin
      {
        OFFSET 0 -36.8199 0.73152
        CHANNELS 3 Zrotation Xrotation Yrotation
        JOINT lFoot
        {
          OFFSET -0.73152 -45.1104 -5.12064
          CHANNELS 3 Zrotation Xrotation Yrotation
          End Site
          {
            OFFSET 1.1221 -3.69964 12.103
          }
        }
      }
    }
  }
}
MOTION
Frames:	5
Frame Time:	0.03333
0.0 0.0 0.0 0.0 0.0 0.0 0.0 0.0 0.0 0.0 0.0 0.0 0.0 0.0 0.0 0.0 0.0 0.0 0.0 0.0 0.0 0.0 0.0 0.0 0.0 0.0 0.0 0.0 0.0 0.0 0.0 0.0 0.0 0.0 0.0 0.0 0.0 0.0 0.0 0.0 0.0 0.0 0.0 0.0 0.0 0.0 0.0 0.0 0.0 0.0 0.0 0.0 0.0 0.0 0.0 0.0 0.0 0.0 0.0 0.0 0.0 0.0 0.0 0.0 0.0 0.0 0.0 0.0 0.0 0.0 0.0 0.0 0.0 0.0 0.0 0.0 0.0 0.0 0.0 0.0 0.0 0.0 0.0 0.0 0.0 0.0 0.0 0.0 0.0 0.0 0.0 0.0 0.0 0.0 0.0 0.0 0.0 0.0 0.0 0.0 0.0 0.0 0.0 0.0 0.0 0.0 0.0 0.0 0.0 0.0 0.0 0.0 0.0 0.0 0.0 0.0 0.0 0.0 0.0 0.0 0.0 0.0 0.0 0.0 0.0 0.0 0.0 0.0 0.0 0.0 0.0 0.0
-0.0268 62.456900000000005 -0.0401 0.470213 15.230014 -0.405117 -0.895918 2.622604 -0.0 -3.306148 -12.26011 161.160652 5.794322 -2.236346 169.210459 -39.898879 3.344867 -82.259824 146.867371 -10.03378 32.88318 154.334141 21.265961 -78.987369 68.127297 31.437507 10.460389 16.469817 -37.404401 10.072737 94.486614 -80.914795 -114.186731 -162.292511 38.71593 64.181766 2.548826 -14.591869 39.466457 174.538606 79.02536 -53.114383 38.076341 0.113462 -75.967914 121.91712 -77.922533 156.441095 137.879117 -20.371971 -108.919016 88.562931 -45.62759 127.551789 -86.412047 18.873473 -106.476257 9.425139 -52.688944 -3.120297 -138.865315 29.798382 -73.192011 -127.183106 44.499624 -170.608016 80.832549 -35.381446 -163.541664 3.606565 44.058768 -19.226014 -8.059953 26.304108 -158.293153 147.83191 64.184663 -72.504055 -97.881554 -16.945554 -56.502557 71.984873 -14.264947 -37.278088 99.15269 62.126712 4.020489 -26.821741 -59.257484 -109.472865 155.03676 20.653521 -28.260169 -115.034314 30.729634 -57.408276 178.24283 7.849983 62.942727 104.270071 -42.81496 82.357344 -29.360094 13.539777 73.332754 70.137536 -38.339973 71.982251 -56.260861 6.499338 -90.053039 6.427293 54.656892 -180.0 7.271819 -2.888057 86.995505 -42.231305 78.414179 51.580821 54.861705 13.475874 90.880336 -11.11897 56.964377 -35.765806 -4.792104 2.155622 -126.909204 72.600454 18.019436 -93.473903
-3.7224 62.66890000000001 -3.3429 -17.445428 -14.347931 14.625876 12.242034 10.083325 -0.0 -2.10143 -5.96492 17.419774 -5.320666 23.615038 -123.14722 32.709024 17.961801 115.510341 20.678498 9.20396 47.614665 11.084776 -3.712044 -36.933414 -151.885762 -14.542987 168.762441 -17.128641 21.596355 -41.629974 22.451839 -40.083274 -129.848528 -158.425583 26.717762 135.077318 5.209929 12.380315 -4.66475 -44.364463 46.316114 52.28358 47.862547 -75.12925 11.775392 26.773779 -12.946972 -40.167164 -92.050962 57.01087 79.219713 -173.607511 -7.30941 150.505619 -87.67061 -64.114258 -90.025933 -50.751493 57.577999 -168.625956 -64.316535 59.478036 110.178271 17.747007 -2.649417 -8.2536 155.868323 -6.576248 -154.054906 13.194181 49.383548 36.774146 144.716907 62.198012 135.74017 1.732466 22.214257 9.11587 -117.214239 -56.823842 -58.151605 8.159211 4.660977 -16.99591 89.498558 27.114708 -58.66974 93.915687 -67.850771 177.501259 70.748501 -73.962075 104.956164 25.833866 -81.930043 112.983805 141.017857 -8.669531 -164.350546 4.660737 24.303404 -24.535637 78.623425 20.163563 -109.205301 -60.014511 -4.874904 -23.675303 -13.25439 -32.613398 -11.214801 -1.797195 18.405121 -11.168618 5.435601 55.574231 28.681558 175.08272 -32.609378 59.230009 -12.710521 -2.289167 -11.966008 83.538344 -52.535986 -180.0 87.252884 -27.633747 28.686273 -58.356645 -52.872406 -153.001985
-6.6583000000000006 58.973200000000006 -4.2196 -21.252568 -16.719524 16.319831 12.746477 7.216759 -60.955087 -2.2063 -4.996186 74.357245 -14.437042 10.803812 -89.475628 30.546767 18.336494 87.793604 19.63997 -1.444291 -8.329938 170.33579 1.260966 -14.833392 -1.709597 47.730799 7.85799 -79.014849 29.047219 54.266214 15.181011 14.845228 -134.991292 -144.652958 50.57331 121.902629 6.987029 21.066919 -10.335633 -82.887766 30.728507 -148.643861 103.908732 -27.436906 90.316646 -36.945175 8.743246 -49.744992 47.761054 -63.360647 45.215491 -170.919166 25.260063 150.789465 -100.712457 -57.708934 -90.624225 172.604593 -69.342116 57.04175 -133.575524 3.905635 -165.774484 -151.426997 -16.134735 -169.640355 147.242302 21.161306 -152.445801 -151.227796 75.416792 -168.663585 -100.989012 5.484057 9.293942 160.0747 62.157671 -124.905366 167.792852 -34.50872 -76.545435 -90.530176 -74.397788 -53.152381 -6.962918 31.491398 -67.322864 -175.747832 -33.932573 152.673891 -98.551716 57.572109 92.89491 -98.177938 -76.884755 178.474844 138.243822 35.480692 -150.003575 -87.859262 -80.053858 -92.814109 -69.38379 2.755352 -38.091338 -97.695137 22.1267 157.212274 -38.178367 74.833521 -140.830744 81.182697 81.269824 -180.0 77.026143 -16.345765 61.052281 79.707343 23.614217 171.688919 -155.123054 86.579793 -0.0 -157.175594 7.00909 -2.465051 -74.69363 66.411991 -40.817308 90.47574 -24.320906 -173.125531
-9.030100000000001 59.500299999999996 -4.6362 -22.190763 -22.062756 18.45501 9.824891 11.866491 -40.103147 3.005485 -11.520656 58.092988 2.489156 3.234855 63.413541 -12.007453 -9.825863 -64.241347 16.749481 -1.924484 -13.017399 179.968666 0.018133 -60.115472 -144.993637 -2.792329 159.123072 -83.166916 -47.707569 -96.712421 57.77951 15.441481 -168.721604 -58.297724 48.055678 46.042299 -6.578645 66.517546 -7.464649 -101.002002 56.611437 135.824249 -85.290119 3.797367 35.52714 -89.974135 -64.536948 113.019142 10.627336 0.844007 -2.107855 171.058791 0.286401 143.234866 165.402525 2.689793 -147.179998 143.824426 -7.277135 -156.50944 33.704253 -12.255018 24.790516 26.405887 36.117127 -85.976203 163.982603 -49.110193 -163.219276 68.765486 -45.269644 74.169862 158.538044 -14.466983 100.908654 -1.66071 12.127124 2.216303 163.33664 -29.029769 -95.960045 36.28457 -8.903414 -10.848166 143.147578 -17.82276 -81.052109 -2.598875 28.343456 -49.108436 -2.489121 -38.369046 58.730084 171.987323 -27.946915 -72.322951 14.496805 2.934877 13.168226 -41.239673 7.142929 -18.452454 -75.038074 -30.769033 -39.917478 87.24362 -14.824965 -25.670954 51.786832 -2.657934 56.091483 -45.736089 39.82816 -33.33155 34.936941 65.267887 63.627872 118.947448 75.298816 152.505236 100.395434 47.523794 50.584597 -111.411073 -37.618925 -103.460618 -88.146714 5.546481 167.943613 -103.016411 43.524496 23.718624
